<?xml version="1.0" encoding="UTF-8" standalone="no"?>
<!DOCTYPE svg PUBLIC "-//W3C//DTD SVG 1.1//EN" "http://www.w3.org/Graphics/SVG/1.1/DTD/svg11.dtd">
<svg width="100%" height="100%" viewBox="0 0 500 350" version="1.1" xmlns="http://www.w3.org/2000/svg" xmlns:xlink="http://www.w3.org/1999/xlink" xml:space="preserve" xmlns:serif="http://www.serif.com/" style="fill-rule:evenodd;clip-rule:evenodd;stroke-linejoin:round;stroke-miterlimit:2;">
    <g id="eg_logo_black" transform="matrix(1.75278,0,0,1.75278,-1652.21,656.612)">
        <g id="Rectangle_2011" transform="matrix(1,0,0,1,946,-375)">
            <rect x="0" y="0" width="279" height="200" style="fill:none;"/>
        </g>
        <g id="Group_2161" transform="matrix(1,0,0,1,967.987,-361.008)">
            <g id="Path_440" transform="matrix(1,0,0,1,136.705,153.148)">
                <path d="M8.64,7.037C8.64,10.729 7.279,12.575 4.556,12.575C2.903,12.558 1.336,11.825 0.264,10.567L0.264,16.547L-2.782,18.195L-2.782,-10.282L0.264,-11.931L0.264,-9.854C1.336,-11.112 2.903,-11.844 4.556,-11.861C7.279,-11.861 8.64,-10.015 8.64,-6.323L8.64,7.037ZM5.525,-5.839C5.525,-8.239 4.648,-9.439 2.895,-9.439C1.845,-9.373 0.878,-8.839 0.264,-7.985L0.264,8.7C0.878,9.554 1.844,10.088 2.894,10.154C4.647,10.154 5.524,8.954 5.524,6.554L5.525,-5.839ZM22.195,12.228L22.195,10.567C21.122,11.825 19.554,12.558 17.9,12.574C15.177,12.574 13.816,10.728 13.816,7.036L13.816,-10.282L16.931,-11.93L16.931,6.552C16.931,8.952 17.808,10.152 19.561,10.152C20.623,10.129 21.608,9.586 22.194,8.7L22.194,-10.28L25.171,-11.928L25.171,12.228L22.195,12.228ZM42.117,5.791C42.117,10.498 40.133,12.852 36.164,12.852C34.554,12.916 33.003,12.224 31.976,10.983C30.859,9.492 30.307,7.651 30.418,5.791L30.418,-5.631C30.297,-7.494 30.907,-9.333 32.118,-10.754C33.234,-11.947 34.811,-12.604 36.444,-12.554C40.228,-12.554 42.12,-10.293 42.12,-5.77L42.12,-4.593L39,-4.593L39,-5.839C39,-8.423 38.1,-9.715 36.3,-9.715C34.454,-9.715 33.531,-8.423 33.531,-5.839L33.531,5.652C33.531,8.559 34.431,10.013 36.231,10.013C37.254,10.143 38.246,9.576 38.654,8.629C38.933,7.663 39.05,6.657 39,5.652L39,4.475L42.115,4.475L42.117,5.791ZM55.533,12.229L55.533,-5.839C55.533,-8.239 54.656,-9.439 52.903,-9.439C51.876,-9.359 50.937,-8.826 50.342,-7.985L50.342,12.228L47.227,12.228L47.227,-17.218L50.273,-18.866L50.273,-9.854C51.345,-11.112 52.912,-11.844 54.565,-11.861C57.288,-11.861 58.649,-10.015 58.649,-6.323L58.649,12.228L55.533,12.229ZM64.173,-15.75L64.173,-18.865L67.219,-18.865L67.219,-15.75L64.173,-15.75ZM64.173,12.229L64.173,-9.871L67.219,-11.519L67.219,10.581L64.173,12.229ZM80.773,12.229L80.773,10.567C79.701,11.825 78.134,12.557 76.481,12.574C73.758,12.574 72.397,10.728 72.397,7.036L72.397,-6.323C72.397,-10.015 73.758,-11.861 76.481,-11.861C78.134,-11.844 79.701,-11.112 80.773,-9.854L80.773,-17.218L83.819,-18.866L83.819,12.228L80.773,12.229ZM80.773,-7.984C80.188,-8.87 79.204,-9.414 78.143,-9.438C76.39,-9.438 75.513,-8.238 75.513,-5.838L75.513,6.552C75.513,8.952 76.39,10.152 78.143,10.152C79.204,10.128 80.188,9.585 80.774,8.7L80.773,-7.984ZM97.3,12.228L97.3,9.806C96.226,11.454 94.419,12.486 92.454,12.575C91.368,12.539 90.357,12.002 89.72,11.121C88.875,10.038 88.445,8.687 88.509,7.314C88.509,2.745 91.463,-0.831 97.37,-3.416L97.37,-6.531C97.37,-8.608 96.609,-9.646 95.086,-9.646C93.24,-9.646 92.317,-8.677 92.317,-6.739L92.317,-6.116L89.206,-6.116C89.17,-7.842 89.803,-9.518 90.971,-10.789C92.075,-11.954 93.624,-12.596 95.228,-12.554C98.735,-12.554 100.489,-10.154 100.489,-5.354L100.489,5.652C100.489,6.99 100.512,8.201 100.558,9.286L100.558,12.228L97.3,12.228ZM97.3,-0.578C93.519,1.407 91.628,3.761 91.628,6.483C91.628,8.698 92.366,9.806 93.843,9.806C95.228,9.806 96.381,8.791 97.304,6.76L97.3,-0.578Z" style="fill-rule:nonzero;"/>
            </g>
            <g id="Path_441" transform="matrix(1,0,0,1,0.972,63.18)">
                <path d="M59.473,39.577C45.657,56.415 37.166,64.834 34,64.834C28.387,64.834 21.767,62.243 14.139,57.062C5.36,51.021 0.971,44.545 0.971,37.634C0.971,34.468 3.202,28.927 7.663,21.012C12.268,12.952 14.571,6.979 14.571,3.094C14.571,-5.541 9.39,-10.794 -0.972,-12.665L11.765,-24.538C20.4,-22.379 24.717,-17.2 24.717,-9C24.717,-3.533 22.917,3.303 19.317,11.508C15.717,19.567 13.917,25.901 13.917,30.508C13.917,34.25 16.65,38.424 22.117,43.029C27.442,47.49 32.623,49.721 37.66,49.721C42.121,49.721 44.352,46.771 44.352,40.87L44.352,-50.23L59.473,-63.18L59.473,39.577ZM59.473,91.387C59.473,93.978 56.882,97.648 51.701,102.397C46.52,107.146 42.419,109.521 39.4,109.52C34.3,109.5 29.326,107.918 25.152,104.987C20.403,102.254 18.028,99.735 18.028,97.431C18.028,96.856 19.107,95.345 21.266,92.898C23.422,90.595 24.5,88.58 24.5,86.853C24.5,81.96 21.118,79.369 14.354,79.082L26.875,69.582C34.502,70.877 38.316,74.259 38.316,79.728C38.316,81.167 37.381,83.254 35.51,85.988C33.639,88.722 32.703,90.593 32.7,91.6C32.719,92.653 33.144,93.659 33.887,94.406C34.757,95.329 35.779,96.096 36.909,96.673C38.1,97.307 39.37,97.778 40.687,98.073C41.893,98.361 43.151,98.361 44.357,98.073L43.93,81.672L59.041,68.936L59.473,91.387ZM116.248,-18.493C116.392,-12.736 112.65,-8.203 105.022,-4.893C112.218,-2.878 115.816,1.583 115.816,8.491L115.816,44.973L94.877,64.618C76.312,59.151 67.029,50.157 67.029,37.634C67.029,34.468 69.476,28.927 74.369,21.012C79.262,13.097 81.709,7.124 81.709,3.094C81.709,-5.541 76.528,-10.794 66.166,-12.665L78.9,-24.538C87.536,-22.379 91.854,-17.2 91.854,-9C91.854,-3.099 89.839,4.167 85.809,12.8C81.779,21.433 79.764,27.984 79.765,32.453C79.765,36.77 82.068,40.8 86.673,44.542C90.846,47.996 94.66,49.723 98.114,49.723C99.841,49.723 100.705,48.5 100.704,46.053L100.704,10.433C100.704,4.1 97.826,0.286 92.069,-1.008C98.258,-4.174 101.136,-9.859 100.704,-18.062L100.272,-25.834L115.815,-33.821L116.248,-18.493ZM115.337,-38.193L65.254,-38.193L77.127,-50.068L127.21,-50.068L115.337,-38.193ZM174.1,65.05L174.1,-10.29L144.744,-10.29C142.926,-10.184 141.221,-9.37 139.995,-8.023C138.52,-6.746 137.656,-4.9 137.62,-2.95C137.62,-0.935 139.131,2.159 142.153,6.333C145.463,10.938 147.334,13.817 147.766,14.968C150.788,13.817 152.299,12.017 152.299,9.568C152.299,6.402 150.284,4.171 146.254,2.876L158.344,-7.7C165.252,-5.973 168.274,-2.447 167.411,2.878C166.692,6.188 164.173,9.714 159.855,13.456C158.049,14.992 156.137,16.398 154.134,17.666C152.191,18.889 150.213,20.004 148.2,21.011L148.2,51.881L133.087,64.834L133.087,22.522C133.087,21.371 131.36,18.348 127.906,13.455C124.595,8.418 122.94,4.677 122.94,2.23C122.94,-0.936 126.538,-5.973 133.734,-12.881C140.93,-19.789 145.607,-23.243 147.766,-23.243L189.214,-23.243L189.214,51.881L174.1,65.05ZM221.377,64.834L221.377,-10.291L193.532,-10.291L205.4,-23.243L236.486,-23.243L236.486,51.881L221.377,64.834Z" style="fill-rule:nonzero;"/>
            </g>
            <g id="Path_442" transform="matrix(1,0,0,1,66.958,154.271)">
                <path d="M7,0L56.97,0L54.97,2L5,2L7,0Z" style="fill-rule:nonzero;"/>
            </g>
        </g>
    </g>
</svg>
